<svg width="76" height="76" viewBox="0 0 76 76" fill="none" xmlns="http://www.w3.org/2000/svg">
<path d="M38 76C31.7509 76 25.5982 74.4588 20.0869 71.513C14.5757 68.5672 9.87599 64.3076 6.40415 59.1117C2.93232 53.9157 0.795501 47.9437 0.182979 41.7246C-0.429544 35.5056 0.501135 29.2315 2.89258 23.458C5.28402 17.6846 9.06241 12.59 13.8931 8.6256C18.7237 4.66119 24.4575 1.9493 30.5866 0.730158C36.7156 -0.488988 43.0508 -0.177763 49.0308 1.63627C55.0109 3.45029 60.4512 6.71113 64.8701 11.1299L38 38L38 76Z" fill="#4CA6FA"/>
<path d="M38 76C29.444 76 21.1384 73.1126 14.4276 67.8051C7.71675 62.4975 2.99346 55.0806 1.02225 46.7548C-0.948953 38.429 -0.0527101 29.6816 3.56591 21.9285C7.18453 14.1754 13.3137 7.87038 20.9614 4.03402L38 38L38 76Z" fill="#3763FF"/>
<path d="M76 38C76 43.3718 74.8611 48.6826 72.6584 53.582C70.4556 58.4814 67.2392 62.8581 63.2212 66.4235C59.2031 69.9888 54.4748 72.6617 49.3482 74.266C44.2215 75.8702 38.8129 76.3692 33.4793 75.7301C28.1456 75.0911 23.0081 73.3284 18.4055 70.5585C13.8029 67.7886 9.83995 64.0743 6.77793 59.6606C3.71592 55.247 1.62447 50.2343 0.641552 44.9532C-0.341368 39.672 -0.193426 34.2425 1.07562 29.0228L38 38H76Z" fill="#150577"/>
</svg>
